<svg id="Layer_1" data-name="Layer 1" xmlns="http://www.w3.org/2000/svg" viewBox="0 0 26.51 24.74"><rect x="21" y="23.49" width="5.27" height="1" style="stroke:currentColor;stroke-miterlimit:10;stroke-width:0.5px"/><path d="M20.74,25.08A15.33,15.33,0,0,1,13,23a15.44,15.44,0,0,0,7.74-13c0-.13,0-.27,0-.4s0-.28,0-.4a7.75,7.75,0,0,0-15.47,0c0,.12,0,.26,0,.4s0,.27,0,.4A15.43,15.43,0,0,0,13,23a15.27,15.27,0,0,1-7.74,2.08" transform="translate(0.26 -1.09)" style="fill:none;stroke:currentColor;stroke-miterlimit:10;stroke-width:1.5px"/><path d="M20.74,9.59c0,.13,0,.27,0,.4A15.44,15.44,0,0,1,13,23,15.43,15.43,0,0,1,5.26,10c0-.13,0-.27,0-.4s0-.28,0-.4a7.75,7.75,0,0,1,15.47,0C20.74,9.31,20.74,9.45,20.74,9.59Z" transform="translate(0.26 -1.09)" style="fill:none;stroke:currentColor;stroke-miterlimit:10;stroke-width:1.5px"/><rect x="0.25" y="23.49" width="5.27" height="1" style="stroke:currentColor;stroke-miterlimit:10;stroke-width:0.5px"/><line x1="5.5" y1="8.5" x2="0.25" y2="23.99" style="fill:none;stroke:currentColor;stroke-miterlimit:10;stroke-width:0.5px"/><line x1="6.38" y1="13.65" x2="2.88" y2="23.99" style="fill:none;stroke:currentColor;stroke-miterlimit:10;stroke-width:0.5px"/><line x1="7.93" y1="16.83" x2="5.5" y2="23.99" style="fill:none;stroke:currentColor;stroke-miterlimit:10;stroke-width:0.5px"/><line x1="21" y1="8.67" x2="26.25" y2="24.16" style="fill:none;stroke:currentColor;stroke-miterlimit:10;stroke-width:0.5px"/><line x1="20.12" y1="13.82" x2="23.62" y2="24.16" style="fill:none;stroke:currentColor;stroke-miterlimit:10;stroke-width:0.5px"/><line x1="18.57" y1="17" x2="21" y2="24.16" style="fill:none;stroke:currentColor;stroke-miterlimit:10;stroke-width:0.5px"/></svg>