<?xml version="1.0" encoding="utf-8"?>
<!-- Generator: Adobe Illustrator 24.2.3, SVG Export Plug-In . SVG Version: 6.00 Build 0)  -->
<svg version="1.1" id="Layer_1" xmlns="http://www.w3.org/2000/svg" xmlns:xlink="http://www.w3.org/1999/xlink" x="0px" y="0px"
	 viewBox="0 0 26 26" style="enable-background:new 0 0 26 26;" xml:space="preserve">
<path d="M20,21.5h2v-2h2v-2h-2v-9h2v-2h-2v-2h-2v2h-2v-2h-2v2h-2v-2h-2v2h-2v-2H8v2H6v-2H4v2H2v2h2v9H2v2h2v2h2v-2h2v2h2v-2h2v2h2
	v-2h2v2h2v-2h2V21.5z M6,17.5v-9h2v9H6z M10,17.5v-9h2v9H10z M14,17.5v-9h2v9H14z M18,17.5v-9h2v9H18z"/>
</svg>
