<?xml version="1.0" encoding="utf-8"?>
<!-- Generator: Adobe Illustrator 24.2.3, SVG Export Plug-In . SVG Version: 6.00 Build 0)  -->
<svg version="1.1" id="Layer_1" xmlns="http://www.w3.org/2000/svg" xmlns:xlink="http://www.w3.org/1999/xlink" x="0px" y="0px"
	 viewBox="0 0 508 104" style="enable-background:new 0 0 508 104;" xml:space="preserve">
<style type="text/css">
	.st0{fill:#FFFFFF;}
	.st1{fill:none;stroke:#2CA7DB;stroke-miterlimit:10;}
	.st2{fill:#2CA7DB;}
	.st3{fill:none;stroke:#2CA7DB;stroke-width:4;stroke-miterlimit:10;}
	.st4{fill:#2CA7DB;stroke:#2CA7DB;stroke-width:2;stroke-miterlimit:10;}
	.st5{clip-path:url(#SVGID_2_);}
	.st6{clip-path:url(#SVGID_4_);}
	.st7{fill:none;stroke:#2CA7DB;stroke-width:2;stroke-miterlimit:10;}
	.st8{fill:#2CA7DB;stroke:#F2D69D;stroke-width:0.5;stroke-miterlimit:10;}
	.st9{fill:none;stroke:#2CA7DB;stroke-width:3;stroke-miterlimit:10;}
	.st10{fill:none;stroke:#2CA7DB;stroke-width:0.5;stroke-miterlimit:10;stroke-dasharray:12,12,12,12,12,12;}
	.st11{fill:#F2D69D;}
	.st12{fill:none;stroke:#000000;stroke-width:4;stroke-miterlimit:10;}
</style>
<g>
	<g id="Layer_1_1_">
		<path class="st0" d="M25.2,1.4h453.6c12.8,0,23.2,10.4,23.2,23.2v53.6c0,12.8-10.4,23.2-23.2,23.2H25.2C12.4,101.4,2,91,2,78.2
			V24.6C2,11.8,12.4,1.4,25.2,1.4z"/>
		<path class="st1" d="M85.3,65.2c-0.5,0-0.9-0.3-0.9-0.8c0,0,0,0,0,0"/>
		<path class="st1" d="M86.2,64c0,0.7-0.4,1.3-0.9,1.3"/>
		<path class="st1" d="M85.3,62.8c0.5,0,0.9,0.6,0.9,1.3"/>
		<ellipse class="st2" cx="84.8" cy="59.3" rx="3.8" ry="2.3"/>
		<rect x="27.9" y="39" class="st3" width="14" height="62.5"/>
		<path class="st2" d="M503.1,74.5c-7.2-2.4-28.7-7.5-35.3-3.4c-4.7,2.9-22.7,1.9-29.2,1.2c-7.4-0.7-25.4,0.6-32.9,0.2
			c-8.6-0.5-11.8,4.2-20.2,5.5c-11.8,1.9-13-7.2-24.6-4.5c-5.9,1.4-10.5,2.5-16.4-0.6c-21.1-11.2-15.1,14.4-60.5,2
			c-16.3-4.5-35.6-4.6-50.9,1.8c-35.2,14.8-60.7-8.8-94.3,2.8c-12.7,4.4-26.3-4.4-40-5.4c-19.3-1.5-38.9,10.6-57,5.2
			c-13.1-4-38.5-13.9-39.5,6.4c-0.4,8.5,10.4,15.4,23.2,15.4h453.6c12.8,0,23.2-6.9,23.2-15.4c0-3.3-0.5-5.8-1.3-6.5
			c-2.7-2.1,5.3-3.3,1.2-3.7S506.6,75.7,503.1,74.5z"/>
		<rect x="19.1" y="23.9" class="st3" width="31.5" height="15.1"/>
		<rect x="52.7" y="30.2" class="st4" width="38.8" height="2.3"/>
		<g>
			<defs>
				<rect id="SVGID_1_" x="77.9" y="32.3" width="6.8" height="25.1"/>
			</defs>
			<clipPath id="SVGID_2_">
				<use xlink:href="#SVGID_1_"  style="overflow:visible;"/>
			</clipPath>
			<g class="st5">
				<line class="st1" x1="78.4" y1="32.5" x2="84.2" y2="57.3"/>
			</g>
		</g>
		<g>
			<defs>
				<rect id="SVGID_3_" x="84.7" y="32.3" width="6.8" height="25.1"/>
			</defs>
			<clipPath id="SVGID_4_">
				<use xlink:href="#SVGID_3_"  style="overflow:visible;"/>
			</clipPath>
			<g class="st6">
				<line class="st1" x1="90.9" y1="32.5" x2="85.2" y2="57.3"/>
			</g>
		</g>
		<line class="st1" x1="84.8" y1="60.5" x2="84.8" y2="63.3"/>
		<line class="st1" x1="50.6" y1="23.9" x2="91.4" y2="30.2"/>
		<line class="st7" x1="28.6" y1="40.5" x2="41.2" y2="63.1"/>
		<line class="st7" x1="40.2" y1="41.2" x2="28.6" y2="61.5"/>
		<rect x="426.5" y="58.9" class="st2" width="28.3" height="4"/>
		<polygon class="st8" points="447.4,63.7 447.4,63.6 447.4,63.6 447.4,62.6 435.9,62.6 435.7,64.4 447.2,65.5 447.3,63.8 
			447.4,63.8 		"/>
		<line class="st7" x1="28.6" y1="61.5" x2="41.2" y2="84.2"/>
		<line class="st7" x1="40.2" y1="62.3" x2="28.6" y2="82.6"/>
		<line class="st7" x1="28.6" y1="61.5" x2="41.2" y2="84.2"/>
		<line class="st7" x1="40.2" y1="62.3" x2="28.6" y2="82.6"/>
		<line class="st7" x1="28.6" y1="80.1" x2="41.2" y2="102.7"/>
		<line class="st7" x1="40.2" y1="80.8" x2="28.6" y2="101.1"/>
		<line class="st7" x1="19.1" y1="23.9" x2="50.6" y2="39"/>
		<line class="st7" x1="50.6" y1="23.9" x2="19.1" y2="39"/>
		<line class="st1" x1="173.6" y1="46.8" x2="173.6" y2="82.8"/>
		<line class="st1" x1="256" y1="47.6" x2="256" y2="84.6"/>
		<line class="st1" x1="297.2" y1="47.6" x2="297.2" y2="84.6"/>
		<line class="st1" x1="214.8" y1="47.6" x2="214.8" y2="84.6"/>
		<line class="st1" x1="338.5" y1="47" x2="338.4" y2="82.5"/>
		<line class="st9" x1="173.3" y1="47.6" x2="338.7" y2="47.6"/>
		<line class="st9" x1="173.5" y1="64.8" x2="338.5" y2="64.8"/>
		<line class="st9" x1="173.2" y1="83.1" x2="338.2" y2="83.1"/>
		<line class="st1" x1="173.5" y1="47.6" x2="214.8" y2="64.6"/>
		<line class="st1" x1="173.5" y1="64.8" x2="214.8" y2="47.6"/>
		<line class="st1" x1="173.5" y1="64.6" x2="214.8" y2="81.6"/>
		<line class="st1" x1="173.5" y1="81.8" x2="214.8" y2="64.6"/>
		<line class="st1" x1="214.3" y1="64.8" x2="255.6" y2="81.8"/>
		<line class="st1" x1="214.3" y1="82" x2="255.6" y2="64.8"/>
		<line class="st1" x1="255.9" y1="64.6" x2="297.2" y2="81.6"/>
		<line class="st1" x1="255.9" y1="81.8" x2="297.2" y2="64.6"/>
		<line class="st1" x1="255.9" y1="47.4" x2="297.2" y2="64.4"/>
		<line class="st1" x1="255.9" y1="64.6" x2="297.2" y2="47.4"/>
		<line class="st10" x1="240" y1="68.7" x2="244" y2="68.7"/>
		<line class="st10" x1="240" y1="73.6" x2="244" y2="73.6"/>
		<line class="st10" x1="240" y1="78.4" x2="244" y2="78.4"/>
		<line class="st10" x1="240.2" y1="76" x2="244.2" y2="76"/>
		<line class="st10" x1="240.1" y1="80.9" x2="244.1" y2="80.9"/>
		<line class="st10" x1="240.3" y1="78.4" x2="244.3" y2="78.4"/>
		<line class="st10" x1="240.3" y1="71.2" x2="244.3" y2="71.2"/>
		<line class="st10" x1="240.3" y1="71.2" x2="244.3" y2="71.2"/>
		<line class="st10" x1="240.2" y1="66.3" x2="244.2" y2="66.3"/>
		<line class="st10" x1="240.5" y1="68.7" x2="244.5" y2="68.7"/>
		<line class="st1" x1="297.4" y1="47.6" x2="338.7" y2="64.6"/>
		<line class="st1" x1="297.4" y1="64.8" x2="338.7" y2="47.6"/>
		<line class="st1" x1="297.4" y1="64.6" x2="338.7" y2="81.6"/>
		<line class="st1" x1="297.4" y1="81.8" x2="338.7" y2="64.6"/>
		<line class="st1" x1="214.7" y1="47.4" x2="256" y2="64.4"/>
		<line class="st1" x1="214.7" y1="64.6" x2="256" y2="47.4"/>
		<line class="st1" x1="240" y1="65.1" x2="240" y2="82.8"/>
		<line class="st1" x1="244" y1="65.3" x2="244" y2="83"/>
		<line class="st10" x1="315.8" y1="73.7" x2="319.8" y2="73.7"/>
		<line class="st10" x1="315.9" y1="81" x2="319.9" y2="81"/>
		<line class="st10" x1="316.1" y1="78.5" x2="320.1" y2="78.5"/>
		<line class="st10" x1="316.1" y1="71.3" x2="320.1" y2="71.3"/>
		<line class="st10" x1="316" y1="66.4" x2="320" y2="66.4"/>
		<line class="st10" x1="316" y1="66.4" x2="320" y2="66.4"/>
		<line class="st10" x1="316.3" y1="68.8" x2="320.3" y2="68.8"/>
		<line class="st10" x1="316" y1="73.7" x2="320" y2="73.7"/>
		<line class="st10" x1="316.3" y1="76.1" x2="320.3" y2="76.1"/>
		<line class="st1" x1="315.8" y1="65.2" x2="315.8" y2="82.9"/>
		<line class="st1" x1="319.8" y1="65.4" x2="319.8" y2="83.1"/>
		<line class="st10" x1="288.5" y1="64.3" x2="292.5" y2="64.3"/>
		<line class="st10" x1="288.7" y1="61.8" x2="292.7" y2="61.8"/>
		<line class="st10" x1="288.7" y1="54.6" x2="292.7" y2="54.6"/>
		<line class="st10" x1="288.6" y1="49.7" x2="292.6" y2="49.7"/>
		<line class="st10" x1="288.9" y1="52.1" x2="292.9" y2="52.1"/>
		<line class="st10" x1="288.6" y1="57" x2="292.6" y2="57"/>
		<line class="st10" x1="288.9" y1="59.4" x2="292.9" y2="59.4"/>
		<line class="st1" x1="288.4" y1="48.5" x2="288.4" y2="66.2"/>
		<line class="st1" x1="292.4" y1="48.7" x2="292.4" y2="66.4"/>
		<line class="st10" x1="193.2" y1="64.4" x2="197.2" y2="64.4"/>
		<line class="st10" x1="193.4" y1="61.9" x2="197.4" y2="61.9"/>
		<line class="st10" x1="193.4" y1="54.7" x2="197.4" y2="54.7"/>
		<line class="st10" x1="193.3" y1="49.8" x2="197.3" y2="49.8"/>
		<line class="st10" x1="193.6" y1="52.2" x2="197.6" y2="52.2"/>
		<line class="st10" x1="193.3" y1="57.1" x2="197.3" y2="57.1"/>
		<line class="st10" x1="193.6" y1="59.5" x2="197.6" y2="59.5"/>
		<line class="st1" x1="193.1" y1="48.6" x2="193.1" y2="66.3"/>
		<line class="st1" x1="197.1" y1="48.8" x2="197.1" y2="66.5"/>
		<path class="st1" d="M427,72.3c-1.9,0-3.5-1.6-3.5-3.5"/>
		<path class="st1" d="M423.5,68.8c0-1.9,1.6-3.5,3.5-3.5"/>
		<ellipse class="st2" cx="427" cy="68.8" rx="2.7" ry="2.8"/>
		<ellipse class="st2" cx="435.5" cy="68.7" rx="2.7" ry="2.8"/>
		<ellipse class="st2" cx="445" cy="69.3" rx="2.7" ry="2.8"/>
		<ellipse class="st2" cx="454.3" cy="69.7" rx="2.7" ry="2.8"/>
		<path class="st1" d="M457.8,69.7c0,1.9-1.5,3.4-3.4,3.4"/>
		<path class="st1" d="M454.3,66.3c1.9,0,3.4,1.5,3.4,3.4"/>
		<line class="st1" x1="426.8" y1="65.3" x2="435.7" y2="65"/>
		<line class="st1" x1="426.8" y1="72.3" x2="435.7" y2="72.1"/>
		<line class="st1" x1="435.5" y1="65" x2="445" y2="65.9"/>
		<line class="st1" x1="435.4" y1="72.1" x2="445" y2="72.8"/>
		<line class="st1" x1="445" y1="65.9" x2="454.3" y2="66.3"/>
		<line class="st1" x1="445" y1="72.8" x2="454.3" y2="73.1"/>
		
			<rect x="417.2" y="32" transform="matrix(0.7071 -0.7071 0.7071 0.7071 89.8709 309.4348)" class="st2" width="2.5" height="28.5"/>
		<rect x="426.5" y="47.2" class="st2" width="14.6" height="11.3"/>
		<rect x="431.9" y="51.5" class="st11" width="4.3" height="7"/>
		<rect x="441.1" y="53.2" class="st2" width="13.8" height="5.3"/>
		<rect x="407.5" y="37" class="st2" width="2.3" height="23"/>
		<rect x="407.8" y="57.8" class="st2" width="6.5" height="2.3"/>
		<circle class="st11" cx="409.1" cy="37" r="0.3"/>
		<circle class="st11" cx="408.6" cy="58.9" r="0.3"/>
		<path class="st2" d="M422.8,52.8c0,0-10.4,5-10.6,5.1c1,0.7,1.7,2.4,2.7,3.1c1.4,0.6,3,0.3,4-0.8c0.3-0.5,2-3,2.3-3.5
			C422,55.6,422.6,54.2,422.8,52.8z"/>
		<path class="st3" d="M502,25.2v53.6c0,1.1-0.1,2.1-0.2,3.2c-1.6,11.5-11.4,20-23,20H25.2c-10.5,0-19.7-7.1-22.4-17.3
			C2.3,82.8,2,80.8,2,78.8V25.2C2,12.4,12.4,2,25.2,2h0h453.6C491.6,2,502,12.4,502,25.2C502,25.2,502,25.2,502,25.2z"/>
		<path class="st2" d="M44.9,84.2v16H13.6c-1.6-0.1-3.1-0.9-4-2.3c-2.3-2.7-4-7.7-4.7-13.7H44.9z"/>
		<polyline class="st12" points="454.9,31.1 485.3,52.1 454.9,73.2 		"/>
	</g>
</g>
</svg>
