<?xml version="1.0" encoding="utf-8"?>
<!-- Generator: Adobe Illustrator 24.2.3, SVG Export Plug-In . SVG Version: 6.00 Build 0)  -->
<svg version="1.1" id="Layer_1" xmlns="http://www.w3.org/2000/svg" xmlns:xlink="http://www.w3.org/1999/xlink" x="0px" y="0px"
	 viewBox="0 0 508 104.3" style="enable-background:new 0 0 508 104.3;" xml:space="preserve">
<style type="text/css">
	.st0{fill:#FFFFFF;}
	.st1{fill:none;stroke:#1500FF;stroke-miterlimit:10;}
	.st2{fill:#2CA7DB;}
	.st3{fill:none;stroke:#2CA7DB;stroke-miterlimit:10;}
	.st4{fill:#2CA7DB;stroke:#2CA7DB;stroke-miterlimit:10;}
	.st5{fill:#2CA7DB;stroke:#FFFFFF;stroke-miterlimit:10;}
	.st6{clip-path:url(#SVGID_2_);}
	.st7{fill:none;stroke:#2CA7DB;stroke-width:5;stroke-miterlimit:10;}
	.st8{clip-path:url(#SVGID_4_);}
	.st9{fill:none;stroke:#2CA7DB;stroke-width:4;stroke-miterlimit:10;}
	.st10{fill:none;stroke:#FFFFFF;stroke-width:5;stroke-miterlimit:10;}
	.st11{fill:none;stroke:#020100;stroke-width:4;stroke-miterlimit:10;}
</style>
<g>
	<g id="Layer_1_1_">
		<path class="st0" d="M25.2,2h453.6C491.6,2,502,12.4,502,25.2v53.6c0,12.8-10.4,23.2-23.2,23.2H25.2C12.4,102,2,91.6,2,78.8V25.2
			C2,12.4,12.4,2,25.2,2z"/>
		<path class="st1" d="M345.1,100.1"/>
		<path class="st2" d="M431.1,19.4h14.3c1,0,1.8,0.8,1.8,1.8v78.3c0,1-0.8,1.8-1.8,1.8h-14.3c-1,0-1.8-0.8-1.8-1.8V21.3
			C429.2,20.2,430,19.4,431.1,19.4z"/>
		<line class="st3" x1="438.2" y1="11.5" x2="438.2" y2="19.7"/>
		<circle class="st4" cx="438.2" cy="11.5" r="1"/>
		<path class="st5" d="M422.5,28h31.7c1,0,1.8,0.8,1.8,1.8v10.4c0,1-0.8,1.8-1.8,1.8h-31.7c-1,0-1.8-0.8-1.8-1.8V29.8
			C420.7,28.9,421.5,28,422.5,28z"/>
		<path class="st5" d="M418.3,35h39.8c0.8,0,1.4,0.6,1.4,1.4v9c0,0.8-0.6,1.4-1.4,1.4h-39.8c-0.8,0-1.4-0.6-1.4-1.4v-9
			C417,35.7,417.6,35,418.3,35z"/>
		<path class="st3" d="M208.4,61c0.9,1.8,6.2,12.5,7.7,15.1"/>
		<path class="st3" d="M201.8,46.3c2.8,5.6,4,9.4,6.8,15"/>
		<path class="st3" d="M181.3,44.9c4.5-3.6,6.5-4.8,10.7-5"/>
		<path class="st3" d="M123.8,91.5c0,0,2.8-2.9,3.1-3.1l0.4-0.3l0.2-0.2L182,44.2"/>
		<path class="st3" d="M290,59.2c11,0.1,21.1,5.7,27.2,14.8"/>
		<path class="st3" d="M261.4,77.4c5.7-11,17.1-18.2,29.1-18.2"/>
		<path class="st3" d="M351.6,82.8c-3.5,2.1-7.5,3.2-11.6,3.2"/>
		<path class="st3" d="M340,62.5c0.1,8.3,4.5,15.9,11.6,20.3"/>
		<path class="st3" d="M340,61.9c0,0.2,0,0.4,0,0.6"/>
		<path class="st3" d="M340,61.3c0,0.2,0,0.4,0,0.6"/>
		<path class="st3" d="M351.6,49.8c-6.3,0.1-11.4,5.1-11.6,11.4"/>
		<path class="st3" d="M363.2,61.3C363,55,357.9,50,351.6,49.8"/>
		<path class="st3" d="M363.2,61.9c0-0.2,0-0.4,0-0.6"/>
		<path class="st3" d="M363.2,62.5c0-0.2,0-0.4,0-0.6"/>
		<path class="st3" d="M351.6,82.8c7.1-4.3,11.4-12,11.6-20.3"/>
		<path class="st3" d="M399.4,91.8c-11.6-4.9-22.9-5.7-36.2-5.8c-4.1,0-8.1-1.1-11.6-3.2"/>
		<path class="st3" d="M339.2,86c-8.8-0.4-16.9-4.8-21.9-12"/>
		<path class="st3" d="M340,86c-0.3,0-0.6,0-0.9,0"/>
		<path class="st3" d="M340.1,86H340"/>
		<path class="st3" d="M239.1,90.2c-9.7-0.2-18.5-5.6-23-14.2"/>
		<path class="st3" d="M261.5,77.1c-4.7,8-13.2,12.9-22.4,13.1"/>
		<path class="st3" d="M191.9,39.8c4.3,0.1,8.3,2.7,10,6.6"/>
		<line class="st3" x1="215.4" y1="74.8" x2="215.4" y2="91.3"/>
		<line class="st3" x1="209.6" y1="63.4" x2="209.6" y2="91.2"/>
		<line class="st3" x1="221.2" y1="82.7" x2="221.2" y2="91"/>
		<line class="st3" x1="198" y1="41.7" x2="198" y2="91.5"/>
		<line class="st3" x1="192.2" y1="40.1" x2="192.2" y2="91.4"/>
		<line class="st3" x1="203.8" y1="50.5" x2="203.8" y2="91.4"/>
		<line class="st3" x1="180.6" y1="45.5" x2="180.6" y2="91.4"/>
		<line class="st3" x1="168.9" y1="54.4" x2="168.9" y2="91.4"/>
		<line class="st3" x1="174.8" y1="49.7" x2="174.8" y2="91.5"/>
		<line class="st3" x1="186.4" y1="41.2" x2="186.4" y2="91.4"/>
		<line class="st3" x1="203.8" y1="50.5" x2="203.8" y2="91.1"/>
		<line class="st3" x1="163.1" y1="59.1" x2="163.1" y2="91.4"/>
		<line class="st3" x1="256" y1="83.6" x2="256" y2="91.3"/>
		<line class="st3" x1="250.2" y1="87.3" x2="250.2" y2="91.2"/>
		<line class="st3" x1="238.6" y1="90.5" x2="238.6" y2="91.1"/>
		<line class="st3" x1="227" y1="87.2" x2="227" y2="91.1"/>
		<line class="st3" x1="232.8" y1="89.4" x2="232.8" y2="91.2"/>
		<line class="st3" x1="244.4" y1="89.5" x2="244.4" y2="91"/>
		<line class="st3" x1="296.6" y1="59.8" x2="296.6" y2="91.3"/>
		<line class="st3" x1="290.8" y1="59.4" x2="290.8" y2="91.1"/>
		<line class="st3" x1="279.2" y1="61.7" x2="279.2" y2="91.1"/>
		<line class="st3" x1="267.6" y1="68.9" x2="267.6" y2="91.2"/>
		<line class="st3" x1="273.4" y1="64" x2="273.4" y2="91.2"/>
		<line class="st3" x1="285" y1="59.6" x2="285" y2="91"/>
		<line class="st3" x1="302.5" y1="61.8" x2="302.5" y2="90.8"/>
		<line class="st3" x1="261.8" y1="76.5" x2="261.8" y2="91"/>
		<line class="st3" x1="337.3" y1="85.9" x2="337.3" y2="91.3"/>
		<line class="st3" x1="331.5" y1="84.5" x2="331.5" y2="91.9"/>
		<line class="st3" x1="319.9" y1="77.2" x2="319.9" y2="91.1"/>
		<line class="st3" x1="308.3" y1="64.8" x2="308.3" y2="91.2"/>
		<line class="st3" x1="314.1" y1="70.1" x2="314.1" y2="91.2"/>
		<line class="st3" x1="325.7" y1="81.8" x2="325.7" y2="91.3"/>
		<line class="st3" x1="343.1" y1="85.8" x2="343.1" y2="91.9"/>
		<line class="st3" x1="348.9" y1="84.3" x2="348.9" y2="91"/>
		<line class="st3" x1="354.7" y1="84.3" x2="354.7" y2="90.7"/>
		<line class="st3" x1="348.9" y1="84.3" x2="348.9" y2="91.8"/>
		<line class="st3" x1="354.7" y1="84.3" x2="354.7" y2="91.5"/>
		<line class="st3" x1="360.5" y1="85.8" x2="360.5" y2="90.9"/>
		<line class="st3" x1="360.5" y1="85.8" x2="360.5" y2="92.1"/>
		<line class="st3" x1="366.3" y1="87.3" x2="366.3" y2="92.4"/>
		<line class="st3" x1="366.3" y1="85.7" x2="366.3" y2="92"/>
		<line class="st3" x1="372.1" y1="87.2" x2="372.1" y2="92.3"/>
		<line class="st3" x1="372.1" y1="85.9" x2="372.1" y2="92.3"/>
		<line class="st3" x1="378" y1="87.5" x2="378" y2="92.5"/>
		<line class="st3" x1="378" y1="86.1" x2="378" y2="91.5"/>
		<line class="st3" x1="383.8" y1="87.7" x2="383.8" y2="92.1"/>
		<line class="st3" x1="389.6" y1="88.8" x2="389.6" y2="91.9"/>
		<line class="st3" x1="157.3" y1="64" x2="157.3" y2="91.4"/>
		<line class="st3" x1="145.7" y1="73.1" x2="145.7" y2="91.4"/>
		<line class="st3" x1="134.1" y1="82.5" x2="134.1" y2="91.4"/>
		<line class="st3" x1="151.5" y1="68.8" x2="151.5" y2="91.4"/>
		<line class="st3" x1="139.9" y1="77.9" x2="139.9" y2="91.4"/>
		<line class="st3" x1="134.1" y1="82.5" x2="134.1" y2="91.6"/>
		<line class="st3" x1="128.3" y1="87.2" x2="128.3" y2="91.8"/>
		<line class="st3" x1="123.8" y1="91.5" x2="392.3" y2="91.5"/>
		<ellipse class="st3" cx="58.2" cy="51.8" rx="35" ry="34.4"/>
		<g>
			<defs>
				<rect id="SVGID_1_" x="32.1" y="46" width="26" height="58.3"/>
			</defs>
			<clipPath id="SVGID_2_">
				<use xlink:href="#SVGID_1_"  style="overflow:visible;"/>
			</clipPath>
			<g class="st6">
				<line class="st7" x1="59.9" y1="47" x2="34.4" y2="103.3"/>
			</g>
		</g>
		<g>
			<defs>
				<rect id="SVGID_3_" x="58.2" y="46" width="26" height="58.3"/>
			</defs>
			<clipPath id="SVGID_4_">
				<use xlink:href="#SVGID_3_"  style="overflow:visible;"/>
			</clipPath>
			<g class="st8">
				<line class="st7" x1="56.5" y1="47" x2="81.9" y2="103.3"/>
			</g>
		</g>
		<path class="st2" d="M56.3,86.2h3.8c0.3,0,0.6,0.3,0.6,0.6v3.7c0,0.3-0.3,0.6-0.6,0.6h-3.8c-0.3,0-0.6-0.3-0.6-0.6v-3.7
			C55.7,86.5,56,86.2,56.3,86.2z"/>
		<path class="st2" d="M81,76.2h3.8c0.3,0,0.6,0.3,0.6,0.6v3.7c0,0.3-0.3,0.6-0.6,0.6H81c-0.3,0-0.6-0.3-0.6-0.6v-3.7
			C80.4,76.5,80.7,76.2,81,76.2z"/>
		<path class="st2" d="M88.5,65.2h3.8c0.3,0,0.6,0.3,0.6,0.6v3.7c0,0.3-0.3,0.6-0.6,0.6h-3.8c-0.3,0-0.6-0.3-0.6-0.6v-3.7
			C87.9,65.5,88.2,65.2,88.5,65.2z"/>
		<path class="st2" d="M91.3,52.1h3.8c0.3,0,0.6,0.3,0.6,0.6v3.7c0,0.3-0.3,0.6-0.6,0.6h-3.8c-0.3,0-0.6-0.3-0.6-0.6v-3.7
			C90.7,52.4,91,52.1,91.3,52.1z"/>
		<path class="st2" d="M88.8,39h3.8c0.3,0,0.6,0.3,0.6,0.6v3.7c0,0.3-0.3,0.6-0.6,0.6h-3.8c-0.3,0-0.6-0.3-0.6-0.6v-3.7
			C88.2,39.3,88.5,39,88.8,39z"/>
		<path class="st2" d="M81,27.8h3.8c0.3,0,0.6,0.3,0.6,0.6v3.7c0,0.3-0.3,0.6-0.6,0.6H81c-0.3,0-0.6-0.3-0.6-0.6v-3.7
			C80.4,28.1,80.7,27.8,81,27.8z"/>
		<path class="st2" d="M69.8,20.6h3.8c0.3,0,0.6,0.3,0.6,0.6v3.7c0,0.3-0.3,0.6-0.6,0.6h-3.8c-0.3,0-0.6-0.3-0.6-0.6v-3.7
			C69.2,20.8,69.4,20.6,69.8,20.6z"/>
		<path class="st2" d="M56.7,17.7h3.8c0.3,0,0.6,0.3,0.6,0.6V22c0,0.3-0.3,0.6-0.6,0.6h-3.8c-0.3,0-0.6-0.3-0.6-0.6v-3.7
			C56.1,17.9,56.4,17.7,56.7,17.7z"/>
		<path class="st2" d="M43,20.3h3.8c0.3,0,0.6,0.3,0.6,0.6v3.7c0,0.3-0.3,0.6-0.6,0.6H43c-0.3,0-0.6-0.3-0.6-0.6v-3.7
			C42.5,20.6,42.7,20.3,43,20.3z"/>
		<path class="st2" d="M31.5,27.8h3.8c0.3,0,0.6,0.3,0.6,0.6v3.7c0,0.3-0.3,0.6-0.6,0.6h-3.8c-0.3,0-0.6-0.3-0.6-0.6v-3.7
			C30.9,28.1,31.2,27.8,31.5,27.8z"/>
		<path class="st2" d="M24.2,39H28c0.3,0,0.6,0.3,0.6,0.6v3.7c0,0.3-0.3,0.6-0.6,0.6h-3.8c-0.3,0-0.6-0.3-0.6-0.6v-3.7
			C23.6,39.3,23.9,39,24.2,39z"/>
		<path class="st2" d="M21.3,52.1H25c0.3,0,0.6,0.3,0.6,0.6v3.7c0,0.3-0.3,0.6-0.6,0.6h-3.8c-0.3,0-0.6-0.3-0.6-0.6v-3.7
			C20.6,52.4,20.9,52.1,21.3,52.1z"/>
		<path class="st2" d="M23.8,65.2h3.8c0.3,0,0.6,0.3,0.6,0.6v3.7c0,0.3-0.3,0.6-0.6,0.6h-3.8c-0.3,0-0.6-0.3-0.6-0.6v-3.7
			C23.1,65.5,23.4,65.2,23.8,65.2z"/>
		<path class="st2" d="M31.5,76.2h3.8c0.3,0,0.6,0.3,0.6,0.6v3.7c0,0.3-0.3,0.6-0.6,0.6h-3.8c-0.3,0-0.6-0.3-0.6-0.6v-3.7
			C30.9,76.4,31.2,76.2,31.5,76.2z"/>
		<path class="st2" d="M41.4,83h3.8c0.3,0,0.6,0.3,0.6,0.6v3.7c0,0.3-0.3,0.6-0.6,0.6h-3.8c-0.3,0-0.6-0.3-0.6-0.6v-3.7
			C40.8,83.2,41.1,83,41.4,83z"/>
		<path class="st2" d="M71.5,83h3.8c0.3,0,0.6,0.3,0.6,0.6v3.7c0,0.3-0.3,0.6-0.6,0.6h-3.8c-0.3,0-0.6-0.3-0.6-0.6v-3.7
			C70.9,83.2,71.2,83,71.5,83z"/>
		<line class="st3" x1="33.4" y1="27.5" x2="82.9" y2="76.1"/>
		<line class="st3" x1="82.9" y1="27.5" x2="33.4" y2="76.1"/>
		<line class="st3" x1="92.8" y1="52" x2="23.1" y2="52"/>
		<line class="st3" x1="58.6" y1="17.6" x2="58.2" y2="86.2"/>
		<line class="st3" x1="71.7" y1="83.7" x2="44.9" y2="20.1"/>
		<line class="st3" x1="25.9" y1="65.1" x2="90.6" y2="38.7"/>
		<line class="st3" x1="26.1" y1="38.8" x2="90.4" y2="65"/>
		<line class="st3" x1="45" y1="83.5" x2="71.8" y2="20.2"/>
		<path class="st1" d="M348.5,97.8"/>
		<path class="st9" d="M502,25.2v53.6c0,1.1-0.1,2.1-0.2,3.2c-1.6,11.5-11.4,20-23,20H25.2c-10.5,0-19.7-7.1-22.4-17.3
			C2.3,82.8,2,80.8,2,78.8V25.2C2,12.4,12.4,2,25.2,2h0h453.6C491.6,2,502,12.4,502,25.2z"/>
		<path class="st2" d="M44.9,84.2v16H13.6c-1.6-0.1-3.1-0.9-4-2.3c-2.3-2.7-4-7.7-4.7-13.8H44.9z"/>
		<rect x="43.8" y="93.6" class="st2" width="44.5" height="8.4"/>
		<rect x="88.3" y="87.5" class="st2" width="36.5" height="14.5"/>
		<rect x="197.8" y="87.4" class="st2" width="36.5" height="13.8"/>
		<rect x="124.8" y="91.2" class="st2" width="73" height="10"/>
		<rect x="258.2" y="77.7" class="st2" width="36.5" height="24"/>
		<rect x="307.4" y="85.9" class="st2" width="36.5" height="15.8"/>
		<rect x="343.9" y="89" class="st2" width="36.5" height="12.9"/>
		<rect x="379.3" y="91.2" class="st2" width="40.5" height="10.5"/>
		<rect x="418" y="96.5" class="st2" width="40.5" height="6.6"/>
		<rect x="455.6" y="85.4" class="st2" width="19" height="18"/>
		<path class="st2" d="M497.8,89.2c-0.9,6.9-6.2,12.3-12.7,12.3h-15V89.2H497.8z"/>
		<rect x="229" y="91.6" class="st2" width="31" height="10.1"/>
		<rect x="294.7" y="82" class="st2" width="22.5" height="18.5"/>
		<polygon class="st2" points="255.1,84.5 248.6,88.8 261.6,88.8 		"/>
		<polygon class="st2" points="303.9,75.5 289,81.9 318.7,81.9 		"/>
		<polygon class="st2" points="465.2,71.5 451.7,85.9 478.7,85.9 		"/>
		<polygon class="st2" points="14.2,60.6 6.7,75 21.6,75 		"/>
		<rect x="11.1" y="73.3" class="st2" width="6.2" height="13.1"/>
		<polygon class="st2" points="137.8,83.9 125.3,91.2 150.2,91.2 		"/>
		<polygon class="st2" points="161.3,75 148.9,91.6 173.7,91.6 		"/>
		<polygon class="st2" points="185.4,83.3 172.9,91.6 197.8,91.6 		"/>
		<polygon class="st2" points="411.4,84.1 404.8,92 418.1,92 		"/>
		<rect x="366.2" y="83.5" class="st2" width="14.2" height="5.5"/>
		<polygon class="st2" points="373.3,78.7 366.2,83.5 380.4,83.5 		"/>
		<path class="st10" d="M460.9,35.1"/>
		<polyline class="st11" points="454.9,31.1 485.3,52.1 454.9,73.2 		"/>
	</g>
</g>
</svg>
